<?xml version="1.0" encoding="utf-8"?>
<svg version="1.1" id="Layer_1" xmlns="http://www.w3.org/2000/svg" xmlns:xlink="http://www.w3.org/1999/xlink" x="0px" y="0px"
	 viewBox="0 0 89.4 90.7" enable-background="new 0 0 89.4 90.7" xml:space="preserve">
<path fill="#FFFFFF" d="M18.2,0v43.1H0v10.1l0,0L6.4,64h21.9v26.6l61.1-35.1V43.4L18.2,0z M1,44.1h18.2V1.8l68.2,41.6l-48.2,28
	l0-10.4l30.4-17.6L28.2,19.1v34.2H1V44.1z M39.2,38l19.6,10.5L39.2,59.8L39.2,38z M88.4,55L29.2,88.9V63H6.9l-5.2-8.8h27.5V20.8
	l38.4,22.6l-7.8,4.5L38.2,36.3l0,36.7L88.4,44V55z"/>
</svg>
