<svg id="Layer_1" data-name="Layer 1" xmlns="http://www.w3.org/2000/svg" viewBox="0 0 136.11 142.2"><defs><style>.beak-cls-1{fill:none;stroke:#fff;stroke-linecap:round;stroke-miterlimit:10;stroke-width:2px;}</style></defs><title>beaker</title><line class="beak-cls-1" x1="25.38" y1="1" x2="135.11" y2="1"/><line class="beak-cls-1" x1="1" y1="129.52" x2="1" y2="24.37"/><line class="beak-cls-1" x1="13.19" y1="141.2" x2="1" y2="129.52"/><line class="beak-cls-1" x1="13.19" y1="117.84" x2="135.11" y2="1"/><line class="beak-cls-1" x1="13.19" y1="141.2" x2="110.73" y2="141.2"/><line class="beak-cls-1" x1="122.92" y1="129.52" x2="110.73" y2="141.2"/><line class="beak-cls-1" x1="122.92" y1="12.68" x2="122.92" y2="94.47"/><line class="beak-cls-1" x1="13.19" y1="117.84" x2="13.19" y2="24.37"/><line class="beak-cls-1" x1="61.96" y1="24.37" x2="13.19" y2="24.37"/><line class="beak-cls-1" x1="98.53" y1="129.52" x2="25.38" y2="129.52"/><line class="beak-cls-1" x1="110.73" y1="117.84" x2="98.53" y2="129.52"/><line class="beak-cls-1" x1="110.73" y1="24.37" x2="110.73" y2="47.73"/><line class="beak-cls-1" x1="1" y1="12.68" x2="110.73" y2="12.68"/><line class="beak-cls-1" x1="13.19" y1="1" x2="122.92" y2="106.15"/><line class="beak-cls-1" x1="61.96" y1="24.37" x2="110.73" y2="71.1"/><line class="beak-cls-1" x1="25.38" y1="129.52" x2="110.73" y2="47.73"/><line class="beak-cls-1" x1="13.19" y1="1" x2="1" y2="1"/><line class="beak-cls-1" x1="122.92" y1="129.52" x2="122.92" y2="106.15"/><line class="beak-cls-1" x1="110.73" y1="71.1" x2="110.73" y2="117.84"/><line class="beak-cls-1" x1="1" y1="1" x2="1" y2="12.68"/><line class="beak-cls-1" x1="110.73" y1="12.68" x2="122.92" y2="12.68"/><line class="beak-cls-1" x1="74.15" y1="24.37" x2="110.73" y2="24.37"/></svg>
