<?xml version="1.0" encoding="utf-8"?>
<!-- Generator: Adobe Illustrator 18.1.1, SVG Export Plug-In . SVG Version: 6.00 Build 0)  -->
<svg version="1.1" id="Beakerx" xmlns="http://www.w3.org/2000/svg" xmlns:xlink="http://www.w3.org/1999/xlink" x="0px" y="0px"
	 viewBox="0 0 258 70" enable-background="new 0 0 258 70" xml:space="preserve">
<g>
	<path fill="#FFFFFF" d="M93.8,25.8c-1-1.2-2.1-2.2-3.5-2.9c-1.3-0.7-2.9-1-4.5-1c-1.7,0-3.1,0.3-4.5,1c-1.3,0.6-2.6,1.5-3.7,2.6
		v-16h-8.7v42.1h5.8c0.6,0,1-0.1,1.3-0.3c0.3-0.2,0.6-0.6,0.7-1.2l0.3-1.5c0.4,0.5,0.9,1,1.4,1.4c0.5,0.4,1,0.8,1.6,1.1
		c0.6,0.3,1.2,0.5,1.9,0.7c0.7,0.2,1.5,0.3,2.4,0.3c1.8,0,3.5-0.4,5-1.1c1.5-0.8,2.8-1.8,3.9-3.2c1.1-1.4,1.9-3,2.5-5
		c0.6-1.9,0.9-4.1,0.9-6.4c0-2.2-0.3-4.1-0.8-5.9C95.4,28.5,94.7,27,93.8,25.8z M87.3,40.7c-0.3,1.2-0.7,2.1-1.2,2.8
		c-0.5,0.7-1.1,1.2-1.8,1.5c-0.7,0.3-1.5,0.5-2.3,0.5c-0.8,0-1.6-0.2-2.3-0.4c-0.8-0.3-1.5-0.8-2.1-1.5V31.2
		c0.8-0.9,1.5-1.6,2.3-2.1c0.8-0.5,1.7-0.7,2.8-0.7c0.8,0,1.5,0.1,2.2,0.4c0.6,0.3,1.2,0.8,1.6,1.4c0.4,0.6,0.7,1.5,1,2.5
		c0.2,1,0.3,2.3,0.3,3.7C87.7,38.2,87.6,39.6,87.3,40.7z"/>
	<path fill="#FFFFFF" d="M123.5,25.4c-1.2-1.1-2.5-2-4.1-2.6c-1.6-0.6-3.4-0.9-5.3-0.9c-2.2,0-4.2,0.4-6,1.2
		c-1.8,0.8-3.3,1.8-4.5,3.1c-1.2,1.3-2.2,2.8-2.9,4.6c-0.7,1.7-1,3.6-1,5.5c0,2.6,0.4,4.9,1.2,6.8c0.8,1.9,1.8,3.6,3.2,4.9
		c1.3,1.3,2.9,2.3,4.7,3c1.8,0.7,3.7,1,5.7,1c1,0,2-0.1,3.1-0.2c1.1-0.1,2.2-0.4,3.3-0.8c1.1-0.4,2.2-0.9,3.2-1.5
		c1-0.6,2-1.5,2.9-2.5l-2.5-3.1c-0.4-0.5-0.9-0.8-1.6-0.8c-0.5,0-1,0.1-1.5,0.4c-0.5,0.2-1,0.5-1.6,0.8c-0.6,0.3-1.2,0.6-2,0.8
		c-0.7,0.2-1.6,0.4-2.6,0.4c-1.9,0-3.4-0.5-4.6-1.6c-1.2-1.1-1.9-2.9-2.2-5.3h16.8c0.4,0,0.7,0,1-0.1c0.3-0.1,0.5-0.3,0.6-0.5
		c0.2-0.2,0.3-0.6,0.3-1c0.1-0.4,0.1-0.9,0.1-1.6c0-2.1-0.3-4-1-5.6C125.5,27.9,124.6,26.5,123.5,25.4z M108.5,33.4
		c0.3-1.8,0.9-3.1,1.9-4.1c0.9-0.9,2.2-1.4,3.9-1.4c0.9,0,1.7,0.2,2.4,0.5c0.7,0.3,1.2,0.7,1.6,1.3c0.4,0.5,0.7,1.1,0.9,1.8
		c0.2,0.7,0.3,1.3,0.3,2H108.5z"/>
	<path fill="#FFFFFF" d="M152,25c-1-1-2.2-1.8-3.6-2.4c-1.4-0.6-3-0.9-4.8-0.9c-2.5,0-4.8,0.4-6.9,1.1c-2.1,0.8-4.1,1.9-5.9,3.5
		l1.6,2.7c0.3,0.4,0.6,0.8,1,1.1c0.4,0.3,0.9,0.5,1.5,0.5c0.7,0,1.3-0.1,1.7-0.3c0.5-0.2,1-0.5,1.5-0.8c0.5-0.3,1.1-0.5,1.8-0.8
		c0.7-0.2,1.5-0.3,2.5-0.3c1.3,0,2.3,0.4,3,1.1c0.7,0.8,1.1,2,1.1,3.7v1.2c-3.3,0.1-6.1,0.4-8.3,1c-2.2,0.6-3.9,1.3-5.2,2.2
		c-1.3,0.9-2.2,1.9-2.7,3c-0.5,1.1-0.8,2.1-0.8,3.2c0,1.3,0.2,2.5,0.6,3.5c0.4,1,1,1.8,1.8,2.5c0.8,0.7,1.7,1.2,2.8,1.5
		c1.1,0.3,2.3,0.5,3.6,0.5c1,0,1.9-0.1,2.7-0.2c0.8-0.2,1.6-0.4,2.3-0.7c0.7-0.3,1.4-0.7,2.1-1.2c0.7-0.5,1.4-1,2.1-1.6l0.6,1.6
		c0.3,0.7,0.6,1.2,1.1,1.4c0.4,0.2,1,0.3,1.9,0.3h4V33.2c0-1.7-0.3-3.2-0.8-4.6C153.7,27.2,153,26,152,25z M146.6,43.6
		c-0.9,0.9-1.7,1.5-2.6,1.9c-0.8,0.4-1.8,0.6-3,0.6c-1,0-1.8-0.2-2.4-0.6c-0.5-0.4-0.8-1.1-0.8-2.1c0-0.5,0.1-1,0.4-1.4
		c0.3-0.4,0.7-0.8,1.4-1.2c0.7-0.3,1.5-0.6,2.7-0.8c1.1-0.2,2.6-0.4,4.3-0.4V43.6z"/>
	<path fill="#FFFFFF" d="M180.1,36.1c-0.4-0.4-0.7-0.8-1.2-1.1c1-0.6,1.8-1.4,2.5-2.3l7.5-10.4h-8c-0.7,0-1.2,0.1-1.7,0.4
		c-0.4,0.2-0.8,0.6-1.2,1.1l-5.5,8.2c-0.3,0.4-0.6,0.6-0.8,0.8c-0.3,0.2-0.7,0.2-1.2,0.2h-1.3V9.4h-8.7v42.1h8.7V38.6h1.7
		c0.6,0,1,0.1,1.3,0.2c0.3,0.1,0.6,0.4,0.8,0.9l5.5,10.3c0.3,0.5,0.7,0.9,1.2,1.1c0.5,0.2,1,0.3,1.7,0.3h7.9l-8.2-13.9
		C180.8,37,180.5,36.5,180.1,36.1z"/>
	<path fill="#FFFFFF" d="M213,25.4c-1.2-1.1-2.5-2-4.1-2.6c-1.6-0.6-3.4-0.9-5.3-0.9c-2.2,0-4.2,0.4-6,1.2c-1.8,0.8-3.3,1.8-4.5,3.1
		c-1.2,1.3-2.2,2.8-2.9,4.6c-0.7,1.7-1,3.6-1,5.5c0,2.6,0.4,4.9,1.2,6.8c0.8,1.9,1.8,3.6,3.2,4.9c1.3,1.3,2.9,2.3,4.7,3
		c1.8,0.7,3.7,1,5.7,1c1,0,2-0.1,3.1-0.2c1.1-0.1,2.2-0.4,3.3-0.8c1.1-0.4,2.2-0.9,3.2-1.5c1-0.6,2-1.5,2.9-2.5l-2.5-3.1
		c-0.4-0.5-0.9-0.8-1.6-0.8c-0.5,0-1,0.1-1.5,0.4c-0.5,0.2-1,0.5-1.6,0.8c-0.6,0.3-1.2,0.6-2,0.8c-0.7,0.2-1.6,0.4-2.6,0.4
		c-1.9,0-3.4-0.5-4.6-1.6c-1.2-1.1-1.9-2.9-2.2-5.3h16.8c0.4,0,0.7,0,1-0.1c0.3-0.1,0.5-0.3,0.6-0.5c0.2-0.2,0.3-0.6,0.3-1
		c0.1-0.4,0.1-0.9,0.1-1.6c0-2.1-0.3-4-1-5.6C215,27.9,214.1,26.5,213,25.4z M198,33.4c0.3-1.8,0.9-3.1,1.9-4.1
		c0.9-0.9,2.2-1.4,3.9-1.4c0.9,0,1.7,0.2,2.4,0.5c0.7,0.3,1.2,0.7,1.6,1.3c0.4,0.5,0.7,1.1,0.9,1.8c0.2,0.7,0.3,1.3,0.3,2H198z"/>
	<path fill="#FFFFFF" d="M236.3,21.7c-1.5,0-2.9,0.4-4,1.3c-1.2,0.9-2.2,2.1-3.1,3.7l-0.5-2.4c-0.1-0.4-0.2-0.7-0.3-1
		c-0.1-0.3-0.3-0.5-0.5-0.6c-0.2-0.2-0.4-0.3-0.7-0.4c-0.3-0.1-0.7-0.1-1.1-0.1H221v29.2h8.7V33.8c0.5-1.2,1.2-2.1,1.9-2.8
		c0.8-0.7,1.8-1,3.1-1c0.2,0,0.5,0,0.7,0c0.3,0,0.5,0.1,0.8,0.1c0.3,0,0.5,0.1,0.8,0.1c0.2,0,0.4,0,0.6,0c0.4,0,0.7-0.1,0.9-0.2
		c0.2-0.1,0.4-0.4,0.5-0.8l0.6-6.4C238.7,22.1,237.6,21.7,236.3,21.7z"/>
	<path fill="#FFFFFF" d="M251.8,61.2l5.5-8h-4.7c-0.3,0-0.5,0.1-0.6,0.2c-0.2,0.1-0.3,0.3-0.5,0.5l-2.2,3.8
		c-0.1,0.2-0.2,0.4-0.3,0.6c-0.1,0.2-0.2,0.4-0.2,0.6l-3-5c-0.1-0.2-0.3-0.4-0.5-0.5c-0.2-0.1-0.4-0.1-0.8-0.1h-4.9l5.5,8.2
		l-5.7,8.8h4.5c0.3,0,0.6-0.1,0.8-0.3c0.2-0.2,0.4-0.4,0.5-0.6l2.5-4.2c0.1-0.1,0.2-0.3,0.2-0.5c0.1-0.2,0.1-0.3,0.2-0.5l3,5.2
		c0.1,0.2,0.3,0.4,0.5,0.6c0.2,0.2,0.5,0.3,0.9,0.3h4.9L251.8,61.2z"/>
	<path fill="#FFFFFF" d="M56.8,0.6c-0.1-0.2-0.2-0.3-0.4-0.4c-0.1,0-0.2-0.1-0.3-0.1H11.9c-0.4,0-0.7,0.3-0.7,0.7s0.3,0.7,0.7,0.7
		h42.6L51,5.1h-4.6H12.2L7.5,0.4C7.4,0.3,7.4,0.3,7.3,0.2C7.2,0.2,7.1,0.2,7,0.2H2.1c-0.4,0-0.7,0.3-0.7,0.7v4.9
		c0,0.4,0.3,0.7,0.7,0.7h9.6l3.5,3.5H7c-0.4,0-0.7,0.3-0.7,0.7v39.4c0,0.1,0,0.2,0.1,0.3c0.1,0.2,0.2,0.3,0.4,0.4
		c0.1,0,0.2,0.1,0.3,0.1c0.1,0,0.2,0,0.3-0.1c0.1,0,0.2-0.1,0.2-0.2l24.1-24.1l3.9,3.9L11.4,54.5c-0.1,0.1-0.1,0.1-0.2,0.2
		c-0.1,0.2-0.1,0.4,0,0.5c0.1,0.2,0.2,0.3,0.4,0.4c0.1,0,0.2,0.1,0.3,0.1h29.5c0.1,0,0.2,0,0.3-0.1c0.1,0,0.2-0.1,0.2-0.2l4.9-4.9
		c0.1-0.1,0.1-0.1,0.2-0.2c0-0.1,0.1-0.2,0.1-0.3v-8.2l3.5,3.5v9.3l-4.5,4.5H7.3l-4.5-4.5v-44c0-0.4-0.3-0.7-0.7-0.7
		s-0.7,0.3-0.7,0.7V55c0,0.1,0,0.2,0.1,0.3c0,0.1,0.1,0.2,0.2,0.2l4.9,4.9c0.1,0.1,0.1,0.1,0.2,0.2c0.1,0,0.2,0.1,0.3,0.1h39.4
		c0.1,0,0.2,0,0.3-0.1c0.1,0,0.2-0.1,0.2-0.2l4.9-4.9c0.1-0.1,0.1-0.1,0.2-0.2c0-0.1,0.1-0.2,0.1-0.3v-9.8c0-0.1,0-0.2-0.1-0.3
		c0-0.1-0.1-0.2-0.2-0.2L47.1,40v-9.6c0-0.1,0-0.2-0.1-0.3c0-0.1-0.1-0.2-0.2-0.2l-4.4-4.4l4.4-4.4c0.1-0.1,0.1-0.1,0.2-0.2
		c0-0.1,0.1-0.2,0.1-0.3V11l3.5-3.5v32.8c0,0.4,0.3,0.7,0.7,0.7s0.7-0.3,0.7-0.7V6.1l4.7-4.7c0.1-0.1,0.1-0.1,0.2-0.2
		C56.9,1,56.9,0.8,56.8,0.6z M2.8,5.1V1.6h3.9l3.5,3.5H2.8z M13.6,6.5h32.8h3.2L46.1,10H31.6c-0.4,0-0.7,0.3-0.7,0.7
		c0,0.4,0.3,0.7,0.7,0.7h13.1l-8.2,8.2l-9.4-9.4c-0.1-0.1-0.1-0.1-0.2-0.2c-0.1,0-0.2-0.1-0.3-0.1h-9.6L13.6,6.5z M26.4,11.4
		l9.1,9.1l-3.9,3.9L18.5,11.4H26.4z M7.7,48.4v-37h8.9l14.1,14.1L7.7,48.4z M32.6,25.5l3.9-3.9l3.9,3.9l-3.9,3.9L32.6,25.5z
		 M45.7,49.8l-4.5,4.5H13.6l22.9-22.9l9.1,9.1V49.8z M45.7,30.7v7.9l-8.2-8.2l3.9-3.9L45.7,30.7z M37.5,20.6l8.2-8.2v7.9l-4.2,4.2
		L37.5,20.6z"/>
</g>
</svg>
