<?xml version="1.0" encoding="utf-8"?>
<!-- Generator: Adobe Illustrator 18.0.0, SVG Export Plug-In . SVG Version: 6.00 Build 0)  -->
<!DOCTYPE svg PUBLIC "-//W3C//DTD SVG 1.1//EN" "http://www.w3.org/Graphics/SVG/1.1/DTD/svg11.dtd">
<svg version="1.1" id="Layer_1" xmlns="http://www.w3.org/2000/svg" xmlns:xlink="http://www.w3.org/1999/xlink" x="0px" y="0px"
	 viewBox="251.2 45.3 710 710" enable-background="new 251.2 45.3 710 710" xml:space="preserve">
<g>
	<path fill="#FFFFFF" d="M293.1,198.9"/>
</g>
<g>
	<g>
		<path fill="#FFFFFF" d="M762.9,296.6c-2.6,0-5.1-1.1-6.8-3.4c-10.9-14.3-23.6-26.8-38.3-37.3c-3.8-2.8-4.7-8.1-1.9-11.9
			c2.8-3.8,8.1-4.7,11.9-1.9c16,11.5,30,25.1,41.9,40.9c2.8,3.8,2.1,9.2-1.7,11.9C766.6,295.9,764.9,296.6,762.9,296.6z"/>
	</g>
	<g>
		<path fill="#FFFFFF" d="M504.3,558.4c-1.7,0-3.6-0.6-5.1-1.7c-49.4-36.6-79-95.2-79-156.5c0-91.5,64.9-171.6,154.4-190.3
			c4.7-1.1,9.2,1.9,10,6.6c1.1,4.7-1.9,9.2-6.6,10c-81.5,17-140.9,90.3-140.9,173.7c0,56,27,109.4,72.2,142.9
			c3.8,2.8,4.7,8.1,1.7,11.9C509.4,557.2,506.8,558.4,504.3,558.4z"/>
	</g>
	<g>
		<path fill="#FFFFFF" d="M655,590.4c-3.8,0-7.5-2.8-8.3-6.6c-1.1-4.7,1.9-9.2,6.4-10.2c40.9-9.2,77.5-32.6,103-66.2
			c2.8-3.8,8.1-4.5,11.9-1.7c3.8,2.8,4.5,8.1,1.7,11.9c-27.9,36.8-67.9,62.6-112.8,72.6C656.3,590.4,655.6,590.4,655,590.4z"/>
	</g>
	<g>
		<path fill="#FFFFFF" d="M824.3,296.6c-3,0-6-1.7-7.5-4.5c-40-74.5-117.5-120.9-202-120.9c-63.4,0-124.5,26.6-167.8,73
			c-3.2,3.4-8.5,3.6-12.1,0.4c-3.4-3.2-3.6-8.5-0.4-12.1c46.4-49.8,112-78.3,180.1-78.3c90.9,0,173.9,49.8,216.9,129.9
			c2.1,4,0.6,9.4-3.4,11.5C827,296.4,825.5,296.6,824.3,296.6z"/>
	</g>
	<g>
		<path fill="#FFFFFF" d="M614.6,646.4c-97.9,0-186.5-58.1-225.7-147.8c-1.9-4.3,0-9.4,4.5-11.3c4.3-1.9,9.4,0,11.3,4.5
			c36.4,83.7,119,137.5,210.1,137.5c46.8,0,91.8-14.1,130.3-40.7c3.8-2.8,9.2-1.7,11.9,2.1c2.8,3.8,1.7,9.2-2.1,11.9
			C713.3,631.3,665,646.4,614.6,646.4z"/>
	</g>
	<g>
		<path fill="#FFFFFF" d="M797,561.2c-1.9,0-3.8-0.6-5.5-1.9c-3.6-3-4-8.3-1.1-11.9c11.3-13.4,20.9-28.1,28.7-43.6
			c2.1-4.3,7.2-6,11.5-3.8c4.3,2.1,6,7.2,3.8,11.5c-8.5,16.8-18.9,32.6-30.9,47.1C801.7,560.1,799.4,561.2,797,561.2z"/>
	</g>
	<g>
		<path fill="#FFFFFF" d="M326.5,434.7c-4.3,0-8.1-3.4-8.5-7.7c-0.9-8.7-1.3-17.9-1.3-26.8c0-164.1,133.5-297.9,297.9-297.9
			c120.1,0,228,71.5,274.6,182.2c1.9,4.3-0.2,9.4-4.5,11.1c-4.3,1.9-9.4-0.2-11.1-4.5C829.6,186.9,728,119.4,614.8,119.4
			c-154.8,0-280.8,126-280.8,280.8c0,8.3,0.4,16.8,1.1,25.1c0.4,4.7-3,8.7-7.7,9.2C326.9,434.7,326.7,434.7,326.5,434.7z"/>
	</g>
	<g>
		<path fill="#FFFFFF" d="M614.6,698.1c-77.9,0-151.8-30-207.6-84.3c-3.4-3.2-3.4-8.7-0.2-12.1c3.2-3.4,8.7-3.4,12.1-0.2
			c52.8,51.3,122.2,79.6,195.9,79.6c115.6,0,218-69.4,260.8-176.9c1.7-4.5,6.6-6.6,11.1-4.7c4.5,1.7,6.6,6.6,4.7,11.1
			c-21.7,54.7-59,101.3-107.7,135C733.8,679.8,675.4,698.1,614.6,698.1z"/>
	</g>
	<g>
		<path fill="#FFFFFF" d="M614.6,749.6c-192.7,0-349.4-156.7-349.4-349.4S421.9,50.9,614.6,50.9c147.1,0,279.5,93,329.1,231.6
			c1.5,4.5-0.6,9.4-5.1,10.9c-4.5,1.5-9.4-0.6-10.9-5.1c-47.3-131.8-172.9-220.4-313-220.4c-183.3,0-332.3,149-332.3,332.3
			s149,332.3,332.3,332.3c143.7,0,270.6-91.5,315.7-228c1.5-4.5,6.4-6.8,10.9-5.3c4.5,1.5,6.8,6.4,5.3,10.9
			C899,653.4,765.7,749.6,614.6,749.6z"/>
	</g>
	<g>
		<path fill="#FFFFFF" d="M740.6,263.4"/>
	</g>
	<g>
		<ellipse fill="#FFFFFF" cx="381.4" cy="434.6" rx="12.8" ry="12.8"/>
	</g>
	<g>
		<circle fill="#FFFFFF" cx="381.2" cy="362.1" r="12.8"/>
	</g>
	<g>
		<circle fill="#FFFFFF" cx="402.5" cy="295.3" r="12.8"/>
	</g>
</g>
</svg>
