<?xml version="1.0" encoding="utf-8"?>
<!-- Generator: Adobe Illustrator 18.1.1, SVG Export Plug-In . SVG Version: 6.00 Build 0)  -->
<svg version="1.1" id="Layer_1" xmlns="http://www.w3.org/2000/svg" xmlns:xlink="http://www.w3.org/1999/xlink" x="0px" y="0px"
	 viewBox="0 0 105.3 71.5" enable-background="new 0 0 105.3 71.5" xml:space="preserve">
<path fill="#FFFFFF" d="M81.8,0H46.4L23.6,39.6l-5.4-9.3l0,0l0,0H6.1L0,40.8h0l0,0l17.8,30.7h11.6l11.5-19.9l11.6,19.9l34.9,0
	l17.9-31L81.8,0z M103.9,40.1H70.1L47.5,1h33.7L103.9,40.1z M46.7,1.5l22.5,39.1L52.5,69.5L40.6,49.1l0,0l-5.4-9.5l-5.7,10.1
	l-5.2-9.1L46.7,1.5z M6.7,31.2h9.9l-4.9,8.7h-10L6.7,31.2z M18.4,70.5L1.2,40.8h10.5l0,0l17.2,29.7H18.4z M40.3,50.7L29.4,69.5
	L12.5,40.3l0,0l5.1-9.1l11.8,20.4l5.7-10.1l4.6,8l0,0l0,0L40.3,50.7z M86.8,70.5l-33.7,0l0-0.1l17-29.4h33.8L86.8,70.5z"/>
</svg>
