<svg xmlns="http://www.w3.org/2000/svg" width="26" height="18" viewBox="0 0 26 18">
    <path fill="#FFF" fill-rule="evenodd" d="M14.253 8.27h2.602V5.836h-2.602v2.432zm-3.075 0h2.602V5.836h-2.602v2.432zm-3.075 0h2.602V5.836H8.103v2.432zm-3.075 0H7.63V5.836H5.028v2.432zm-3.075 0h2.602V5.836H1.953v2.432zm3.075-2.92H7.63V2.918H5.028V5.35zm3.075 0h2.602V2.918H8.103V5.35zm3.075 0h2.602V2.918h-2.602V5.35zm0-2.919h2.602V0h-2.602v2.432zm13.496 4.42c-.568-.39-1.874-.534-2.878-.34-.13-.973-.657-1.816-1.617-2.58l-.551-.377-.368.567c-.472.731-.707 1.743-.63 2.714.035.342.144.953.486 1.49-.342.188-1.017.448-1.906.43H.097l-.033.204c-.161.975-.158 4.02 1.765 6.36 1.46 1.778 3.651 2.68 6.51 2.68 6.198 0 10.784-2.934 12.931-8.267.845.017 2.663.005 3.597-1.83.024-.042.08-.152.243-.5l.09-.19-.526-.361z"/>
</svg>
