<?xml version="1.0" encoding="utf-8"?>
<!-- Generator: Adobe Illustrator 18.0.0, SVG Export Plug-In . SVG Version: 6.00 Build 0)  -->
<!DOCTYPE svg PUBLIC "-//W3C//DTD SVG 1.1//EN" "http://www.w3.org/Graphics/SVG/1.1/DTD/svg11.dtd">
<svg version="1.1" id="Layer_1" xmlns="http://www.w3.org/2000/svg" xmlns:xlink="http://www.w3.org/1999/xlink" x="0px" y="0px"
	 viewBox="239.4 67.2 740 640" enable-background="new 239.4 67.2 740 640" xml:space="preserve">
<g>
	<path fill="none" stroke="#FFFFFF" stroke-miterlimit="10" d="M321.5,175.2"/>
</g>
<g>
	<g>
		<path fill="#FFFFFF" d="M871.4,535.9c-1.5,0-2.9-0.6-3.8-1.7l-64.9-66.6l-91.6,15.8c-2.1,0.4-4-0.4-5.3-2.1
			c-1.3-1.7-1.5-3.8-0.4-5.7l43.3-82.4l-43.5-82.4c-1.1-1.9-0.8-4,0.4-5.7c1.3-1.7,3.2-2.5,5.3-2.1l91.6,15.8l64.9-66.6
			c1.5-1.5,3.6-2.1,5.5-1.5c1.9,0.6,3.4,2.3,3.8,4.4l13.4,92l83.4,41.2c1.9,0.8,2.9,2.7,2.9,4.8s-1.3,4-2.9,4.8l-83.4,41.2l-13.4,92
			c-0.2,2.1-1.7,3.8-3.8,4.4C872.5,535.7,871.9,535.9,871.4,535.9z M804.4,456.5c1.5,0,2.9,0.6,3.8,1.7l59.2,60.7l12.2-84
			c0.2-1.7,1.3-3.4,2.9-4l76-37.6l-76-37.6c-1.7-0.8-2.7-2.3-2.9-4l-12.2-84l-59,60.7c-1.3,1.3-2.9,1.9-4.8,1.5L720,315.5l39.5,75.2
			c0.8,1.7,0.8,3.4,0,5L720,471l83.6-14.3C803.8,456.5,804.2,456.5,804.4,456.5z"/>
	</g>
	<g>
		<path fill="#FFFFFF" d="M754.6,398.5H247.5c-2.9,0-5.5-2.5-5.5-5.5s2.5-5.5,5.5-5.5h507.1c2.9,0,5.5,2.5,5.5,5.5
			S757.6,398.5,754.6,398.5z"/>
	</g>
	<g>
		<path fill="#FFFFFF" d="M709.9,703.6c-1.1,0-2.1-0.2-2.9-0.8l-462.4-305c-1.3-0.8-2.1-2.3-2.3-3.8c-0.2-1.5,0.2-3.2,1.3-4.2
			l215.5-253.4c0.8-0.8,1.9-1.5,2.9-1.7L753.6,71c2.1-0.4,4.4,0.4,5.7,2.3l216.6,316.8c0.8,1.3,1.1,2.7,0.8,4.2l-39.9,183.2
			c-0.4,1.5-1.3,2.7-2.7,3.6L712.8,702.9C711.8,703.3,710.9,703.6,709.9,703.6z M255.5,392l454.6,299.8l216.2-119.1l38.9-178.4
			l-213-312L466,144.7L255.5,392z"/>
	</g>
	<g>
		<path fill="#FFFFFF" d="M709.9,313.9c-1.1,0-2.1-0.2-2.9-0.8L460.1,144.5c-2.5-1.7-3.2-5-1.5-7.6s5-3.2,7.6-1.5L713,304
			c2.5,1.7,3.2,5,1.5,7.6C713.5,313,711.8,313.9,709.9,313.9z"/>
	</g>
	<g>
		<path fill="#FFFFFF" d="M709.9,313.9c-0.4,0-0.6,0-1.1,0c-2.9-0.6-4.8-3.4-4.2-6.3l44.5-232.1c0.6-2.9,3.4-4.8,6.3-4.2
			c2.9,0.6,4.8,3.4,4.2,6.3l-44.5,232.1C714.7,312,712.6,313.9,709.9,313.9z"/>
	</g>
	<g>
		<path fill="#FFFFFF" d="M931.3,581.7c-1.1,0-2.3-0.4-3.4-1.1l-59.9-45.8c-2.3-1.9-2.7-5.3-1.1-7.6c1.9-2.3,5.3-2.7,7.6-1.1
			l59.9,45.8c2.3,1.9,2.7,5.3,1.1,7.6C934.5,581.1,932.8,581.7,931.3,581.7z"/>
	</g>
	<g>
		<path fill="#FFFFFF" d="M709.9,703.6c-1.3,0-2.7-0.4-3.8-1.5c-2.1-2.1-2.3-5.5-0.2-7.6l161.3-167.9c2.1-2.1,5.5-2.3,7.6-0.2
			c2.1,2.1,2.3,5.5,0.2,7.6L713.9,701.9C712.8,703.1,711.4,703.6,709.9,703.6z"/>
	</g>
	<g>
		<path fill="#FFFFFF" d="M709.9,703.6c-2.9,0-5.5-2.5-5.5-5.5v-220c0-2.9,2.5-5.5,5.5-5.5c2.9,0,5.5,2.5,5.5,5.5v220.2
			C715.4,701.2,713,703.6,709.9,703.6z"/>
	</g>
	<g>
		<path fill="#FFFFFF" d="M709.9,483.4c-0.4,0-0.6,0-1.1,0l-462.4-84.9c-2.9-0.6-4.8-3.4-4.4-6.3c0.6-2.9,3.4-4.8,6.3-4.4
			l462.6,84.9c2.9,0.6,4.8,3.4,4.4,6.3C714.7,481.7,712.6,483.4,709.9,483.4z"/>
	</g>
</g>
</svg>
