<svg xmlns="http://www.w3.org/2000/svg" viewBox="0 0 45.22 52.58"><defs><style>.cls-1{fill:#fff;}</style></defs><title>Asset 1</title><g id="Layer_2" data-name="Layer 2"><g id="Layer_2-2" data-name="Layer 2"><path class="cls-1" d="M40.46,9.08a4.76,4.76,0,0,0-3.66,7.81v9.89c0,4.85-5.68,7.14-10.62,8.9V7.91a4.76,4.76,0,1,0-7.14,0V27C14.1,25.23,8.42,23.09,8.42,20.23v-6a4.76,4.76,0,1,0-7.14.2v7.46c0,8.69,15.47,9.17,17.76,14,0,0,0,11.7,0,12.9a3.48,3.48,0,0,0,3.58,3.78,3.54,3.54,0,0,0,3.58-3.83c0-1.21,0-3.4,0-3.4,2.29-4.86,17.76-6.3,17.76-15V17.08a4.76,4.76,0,0,0-3.48-8Z"/></g></g></svg>