<?xml version="1.0" encoding="utf-8"?>
<!-- Generator: Adobe Illustrator 18.0.0, SVG Export Plug-In . SVG Version: 6.00 Build 0)  -->
<!DOCTYPE svg PUBLIC "-//W3C//DTD SVG 1.1//EN" "http://www.w3.org/Graphics/SVG/1.1/DTD/svg11.dtd">
<svg version="1.1" id="Layer_1" xmlns="http://www.w3.org/2000/svg" xmlns:xlink="http://www.w3.org/1999/xlink" x="0px" y="0px"
	 viewBox="308.1 91 610 610" enable-background="new 308.1 91 610 610" xml:space="preserve">
<g>
	<g>
		<path fill="#FFFFFF" d="M492.8,275.5H313.9V96.8h178.6L492.8,275.5L492.8,275.5z M324.8,264.6h156.9V107.7H324.8V264.6z"/>
	</g>
	<g>
		<path fill="#FFFFFF" d="M702.5,275.5H523.9V96.8h178.6V275.5z M534.8,264.6h156.9V107.7H534.8V264.6z"/>
	</g>
	<g>
		<path fill="#FFFFFF" d="M912.3,275.5H733.6V96.8h178.6V275.5z M744.5,264.6h156.9V107.7H744.5V264.6z"/>
	</g>
	<g>
		<path fill="#FFFFFF" d="M492.8,485.4H313.9V306.8h178.6L492.8,485.4L492.8,485.4z M324.8,474.5h156.9V317.7H324.8V474.5z"/>
	</g>
	<g>
		<path fill="#FFFFFF" d="M702.5,485.4H523.9V306.8h178.6V485.4z M534.8,474.5h156.9V317.7H534.8V474.5z"/>
	</g>
	<g>
		<path fill="#FFFFFF" d="M912.3,485.4H733.6V306.8h178.6V485.4z M744.5,474.5h156.9V317.7H744.5V474.5z"/>
	</g>
	<g>
		<path fill="#FFFFFF" d="M492.8,695.2H313.9V516.5h178.6L492.8,695.2L492.8,695.2z M324.8,684.3h156.9V527.4H324.8V684.3z"/>
	</g>
	<g>
		<path fill="#FFFFFF" d="M702.5,695.2H523.9V516.5h178.6V695.2z M534.8,684.3h156.9V527.4H534.8V684.3z"/>
	</g>
	<g>
		<path fill="#FFFFFF" d="M912.3,695.2H733.6V516.5h178.6V695.2z M744.5,684.3h156.9V527.4H744.5V684.3z"/>
	</g>
	<g>
		<path fill="#FFFFFF" d="M618.5,401.4H397.9V180.8h220.6V401.4z M408.8,390.6h198.9V191.7H408.8V390.6z"/>
	</g>
	<g>
		<path fill="#FFFFFF" d="M828.5,401.4H607.6V180.8h220.6v220.6H828.5z M618.5,390.6h198.9V191.7H618.5V390.6z"/>
	</g>
	<g>
		<path fill="#FFFFFF" d="M618.5,611.2H397.9V390.6h220.6V611.2z M408.8,600.3h198.9V401.4H408.8V600.3z"/>
	</g>
	<g>
		<path fill="#FFFFFF" d="M828.5,611.2H607.6V390.6h220.6v220.6H828.5z M618.5,600.3h198.9V401.4H618.5V600.3z"/>
	</g>
	<g>
		<circle fill="#FFFFFF" cx="613.1" cy="396" r="32.6"/>
	</g>
	<g>
		<circle fill="#FFFFFF" cx="823.1" cy="186.3" r="32.6"/>
	</g>
	<g>
		<circle fill="#FFFFFF" cx="823.1" cy="605.7" r="32.6"/>
	</g>
	<g>
		<circle fill="#FFFFFF" cx="403.3" cy="605.7" r="32.6"/>
	</g>
	<g>
		<circle fill="#FFFFFF" cx="403.3" cy="186.3" r="32.6"/>
	</g>
	<g>
		<circle fill="#FFFFFF" cx="823.1" cy="396" r="21.8"/>
	</g>
	<g>
		<circle fill="#FFFFFF" cx="403.3" cy="396" r="21.8"/>
	</g>
	<g>
		<circle fill="#FFFFFF" cx="613.1" cy="605.7" r="21.8"/>
	</g>
	<g>
		<circle fill="#FFFFFF" cx="613.1" cy="186.3" r="21.8"/>
	</g>
</g>
</svg>
