<?xml version="1.0" encoding="utf-8"?>
<!-- Generator: Adobe Illustrator 21.0.2, SVG Export Plug-In . SVG Version: 6.00 Build 0)  -->
<svg version="1.1" id="Layer_1" xmlns="http://www.w3.org/2000/svg" xmlns:xlink="http://www.w3.org/1999/xlink" x="0px" y="0px"
	 viewBox="0 0 662.7 152.1" style="enable-background:new 0 0 662.7 152.1;" xml:space="preserve">
<style type="text/css">
	.st0{fill:#E37222;}
	.st1{fill:url(#SVGID_1_);}
	.st2{fill:#FFBE00;}
</style>
<g>
	<path class="st0" d="M92.4,13.6v86.9H82V61.4H10.4v39.1H0V13.6h10.4v37.9H82V13.6H92.4z"/>
	<path class="st0" d="M349.6,90.9v9.7h-77V13.6H283v77.3H349.6z"/>
	<path class="st0" d="M391.7,100.5V13.6h10.4v86.9H391.7z"/>
	<path class="st0" d="M536.6,23h-41.1v77.5h-10.4V23h-41v-9.4h92.5V23z"/>
	<path class="st0" d="M662.7,90.9v9.7h-84.1V13.6h82.9v9.7H589v28.2h61.4v9.7H589v29.7H662.7z"/>
	<linearGradient id="SVGID_1_" gradientUnits="userSpaceOnUse" x1="181.865" y1="152.1358" x2="181.865" y2="49.4637">
		<stop  offset="0" style="stop-color:#FFBE00;stop-opacity:0"/>
		<stop  offset="1" style="stop-color:#FFBE00;stop-opacity:0.4"/>
	</linearGradient>
	<polygon class="st1" points="181.9,152.1 130.5,100.8 181.9,49.5 233.2,100.8 	"/>
	<polygon class="st0" points="181.9,0 181.9,49.5 233.2,100.9 233.2,51.3 	"/>
	<polygon class="st2" points="181.9,0 181.9,49.5 130.5,100.9 130.5,51.3 	"/>
</g>
</svg>
