<?xml version="1.0" encoding="utf-8"?>
<!-- Generator: Adobe Illustrator 18.0.0, SVG Export Plug-In . SVG Version: 6.00 Build 0)  -->
<!DOCTYPE svg PUBLIC "-//W3C//DTD SVG 1.1//EN" "http://www.w3.org/Graphics/SVG/1.1/DTD/svg11.dtd">
<svg version="1.1" id="Layer_1" xmlns="http://www.w3.org/2000/svg" xmlns:xlink="http://www.w3.org/1999/xlink" x="0px" y="0px"
	 viewBox="255.5 41.9 700 700" enable-background="new 255.5 41.9 700 700" xml:space="preserve">
<g>
	<path fill="none" stroke="#FFFFFF" stroke-miterlimit="10" d="M278.8,201"/>
</g>
<g>
	<g>
		<g>
			<ellipse fill="#FFFFFF" cx="735.3" cy="240" rx="12.1" ry="12.1"/>
			<ellipse fill="#FFFFFF" cx="552.8" cy="128.5" rx="10.8" ry="10.8"/>
			<ellipse fill="#FFFFFF" cx="377.8" cy="193.2" rx="9.9" ry="9.9"/>
			<ellipse fill="#FFFFFF" cx="328.6" cy="195.4" rx="16.4" ry="16.4"/>
			<ellipse fill="#FFFFFF" cx="405.2" cy="419.7" rx="11" ry="11"/>
			<ellipse fill="#FFFFFF" cx="487.4" cy="517.1" rx="15.5" ry="15.5"/>
			<ellipse fill="#FFFFFF" cx="579.3" cy="621.8" rx="19.4" ry="19.4"/>
			<ellipse fill="#FFFFFF" cx="814.1" cy="643.3" rx="20" ry="20"/>
			<ellipse fill="#FFFFFF" cx="747.8" cy="372.3" rx="16.4" ry="16.4"/>
		</g>
		<g>
			<path fill="#FFFFFF" d="M578.2,623.9l-92.5-105.2l-82.4-97.9l-0.2-0.4l-77.5-227.1l52.1-2.2l175.6-65l184.4,112.6l12.7,133.2
				l66.9,273.8L578.2,623.9z M407.1,418.6l82,97.3l91.3,103.7l230.7,21.3l-65.4-268.4l-12.5-131.3L552.6,130.9l-174.1,64.6
				l-46.9,1.9L407.1,418.6z"/>
			
				<rect x="403.5" y="393.9" transform="matrix(-0.9907 0.1363 -0.1363 -0.9907 1201.5967 709.7542)" fill="#FFFFFF" width="346.1" height="4.3"/>
		</g>
	</g>
	<g>
		<g>
			<ellipse fill="#FFFFFF" cx="461.1" cy="257.8" rx="12.1" ry="12.1"/>
			<ellipse fill="#FFFFFF" cx="349.6" cy="440.3" rx="10.8" ry="10.8"/>
			<ellipse fill="#FFFFFF" cx="414.4" cy="615.3" rx="9.9" ry="9.9"/>
			<ellipse fill="#FFFFFF" cx="416.6" cy="664.5" rx="16.4" ry="16.4"/>
			<ellipse fill="#FFFFFF" cx="640.8" cy="587.9" rx="11" ry="11"/>
			<ellipse fill="#FFFFFF" cx="738.3" cy="505.7" rx="15.5" ry="15.5"/>
			<ellipse fill="#FFFFFF" cx="842.9" cy="413.8" rx="19.4" ry="19.4"/>
			<ellipse fill="#FFFFFF" cx="864.4" cy="179" rx="20" ry="20"/>
			<ellipse fill="#FFFFFF" cx="593.5" cy="245.4" rx="16.4" ry="16.4"/>
		</g>
		<g>
			<path fill="#FFFFFF" d="M845.1,414.9l-105.2,92.5l-97.9,82.4l-0.4,0.2l-227.1,77.5l-2.2-52.1l-65-175.4l112.6-184.4L593.1,243
				L866.8,176L845.1,414.9z M639.8,586l97.3-82l103.7-91.3l21.3-230.7l-268.4,65.4L462.4,260L352,440.6l64.6,174.1l1.9,46.9
				L639.8,586z"/>
			
				<rect x="615" y="243.6" transform="matrix(-0.9907 0.1363 -0.1363 -0.9907 1285.3879 745.3397)" fill="#FFFFFF" width="4.3" height="346.1"/>
		</g>
	</g>
	<g>
		<g>
			<circle fill="#FFFFFF" cx="592.8" cy="198" r="12.1"/>
			<circle fill="#FFFFFF" cx="384.9" cy="248.4" r="10.8"/>
			<circle fill="#FFFFFF" cx="307.3" cy="417.7" r="9.9"/>
			<circle fill="#FFFFFF" cx="273.7" cy="454.1" r="16.4"/>
			<circle fill="#FFFFFF" cx="486.5" cy="558.5" r="11"/>
			<circle fill="#FFFFFF" cx="613.5" cy="569.5" r="15.5"/>
			<circle fill="#FFFFFF" cx="752.5" cy="578.3" r="19.4"/>
			<circle fill="#FFFFFF" cx="933.8" cy="427.6" r="20"/>
			<circle fill="#FFFFFF" cx="695.3" cy="282.8" r="16.4"/>
		</g>
		<g>
			<path fill="#FFFFFF" d="M753.2,580.7l-139.9-8.8l-127.6-11l-0.4-0.2L269.8,455l35.3-38.3l78.1-170l210.1-50.8l103.1,85.2
				l240.8,146.3L753.2,580.7z M487.2,556.3l126.8,10.8l138,8.8l178.2-148.3L694,284.3l-101.6-83.9l-205.7,49.7l-77.5,168.7
				l-31.6,34.4L487.2,556.3z"/>
			
				<rect x="417.9" y="418.3" transform="matrix(-0.6041 0.7969 -0.7969 -0.6041 1282.9229 203.5258)" fill="#FFFFFF" width="346.1" height="4.3"/>
		</g>
	</g>
	<g>
		<g>
			<circle fill="#FFFFFF" cx="411.6" cy="404.4" r="12.1"/>
			<circle fill="#FFFFFF" cx="462" cy="612.3" r="10.8"/>
			<circle fill="#FFFFFF" cx="631.4" cy="690.2" r="9.9"/>
			<circle fill="#FFFFFF" cx="667.7" cy="723.8" r="16.4"/>
			<circle fill="#FFFFFF" cx="772.3" cy="510.9" r="11"/>
			<circle fill="#FFFFFF" cx="783.1" cy="383.7" r="15.5"/>
			<circle fill="#FFFFFF" cx="791.9" cy="244.9" r="19.4"/>
			<circle fill="#FFFFFF" cx="641.3" cy="63.7" r="20"/>
			<circle fill="#FFFFFF" cx="496.4" cy="302" r="16.4"/>
		</g>
		<g>
			<path fill="#FFFFFF" d="M794.3,244.1l-8.8,139.9l-11,127.6l-0.2,0.4L668.6,727.4l-38.3-35.3l-170-78.1L409.5,404l85.2-103.1
				L641.1,60L794.3,244.1z M770.2,510.3l10.8-126.8l8.8-138L641.5,67.4L498.2,303.5L414.2,405l49.7,205.7l168.7,77.5l34.4,31.6
				L770.2,510.3z"/>
			
				<rect x="632.2" y="233.6" transform="matrix(-0.6041 0.7969 -0.7969 -0.6041 1341.6516 146.675)" fill="#FFFFFF" width="4.3" height="346.1"/>
		</g>
	</g>
</g>
</svg>
