<?xml version="1.0" encoding="UTF-8" standalone="no"?>
<svg width="100%" height="100%" viewBox="0 0 460 84" version="1.1" xmlns="http://www.w3.org/2000/svg">
    <g id="g1">
        <path d="M83.738,42l-42,-42l-42,42l42,42l42,-42Z" style="fill:#009aa6;"/>
        <path d="M70.923,33.05l-3.364,3.578l-6.285,0.03c1.084,1.578 1.627,3.536 1.627,5.875c0,3.663 -1.071,6.893 -3.212,9.689c-2.142,2.797 -5.079,4.195 -8.813,4.195c-2.832,0 -5.061,-0.835 -6.688,-2.504c-1.628,-1.67 -2.441,-3.857 -2.441,-6.562c0,-4.015 1.109,-7.417 3.328,-10.207c2.219,-2.79 5.118,-4.184 8.696,-4.184c1.142,0 2.385,0.169 3.315,0.179l13.837,-0.089Zm-25.372,14.217c0,1.817 0.479,3.303 1.437,4.459c0.958,1.155 2.268,1.733 3.93,1.733c2.536,0 4.533,-1.216 5.992,-3.646c1.458,-2.43 2.187,-4.913 2.187,-7.449c0,-2.071 -0.469,-3.663 -1.406,-4.776c-0.936,-1.113 -2.208,-1.67 -3.814,-1.67c-2.522,0 -4.54,1.159 -6.055,3.477c-1.514,2.317 -2.271,4.941 -2.271,7.872Z" style="fill:#fff;fill-rule:nonzero;"/>
        <path d="M38.655,56.417l0,-3.679l-15.507,0c0.729,-7.9 15.507,-6.689 15.507,-16.959c0,-5.266 -3.68,-8.63 -9.189,-8.63c-3.888,0 -7.493,2.05 -10.004,4.89l1.944,2.95c2.107,-2.528 5.023,-4.266 8.141,-4.266c3.281,0 5.671,1.948 5.671,5.161c0,7.743 -15.999,5.688 -15.715,19.324l0.04,1.209l19.112,0Z" style="fill:#fff;fill-rule:nonzero;"/>
    </g>
    <g id="g2">
        <path d="M118.395,64.214l9.035,0l0,-33.895l13.894,0l0,-8.018l-36.763,0l0,8.018l13.834,0l0,33.895Z" style="fill:#fff;fill-rule:nonzero;"/>
        <path d="M157.319,64.214l9.281,0l8.264,-28.441l0.119,0l8.204,28.441l9.281,0l13.233,-41.913l-9.461,0l-8.742,28.98l-0.12,0l-8.323,-28.98l-8.263,0l-8.323,28.98l-0.12,0l-8.742,-28.98l-9.461,0l13.173,41.913Z" style="fill:#fff;fill-rule:nonzero;"/>
        <path d="M207.865,43.138c0,12.699 9.035,21.795 21.735,21.795c12.759,0 21.735,-9.096 21.735,-21.795c0,-12.579 -8.976,-21.555 -21.735,-21.555c-12.7,0 -21.735,8.976 -21.735,21.555Zm9.215,0c0,-8.386 5.152,-13.957 12.52,-13.957c7.428,0 12.58,5.571 12.58,13.957c0,8.566 -5.212,14.137 -12.58,14.137c-7.309,0 -12.52,-5.571 -12.52,-14.137Z" style="fill:#fff;fill-rule:nonzero;"/>
        <path d="M270.386,60.326c4.01,2.513 10.413,4.607 16.705,4.607c10.78,0 16.165,-5.505 16.165,-12.56c0,-16.138 -22.637,-10.699 -22.637,-18.41c0,-2.51 2.397,-4.423 6.412,-4.423c3.715,0 7.608,0.897 11.318,2.75l3.351,-7.151c-4.667,-2.23 -9.576,-3.556 -15.089,-3.556c-9.702,0 -15.387,5.606 -15.387,12.5c0,15.839 22.638,10.579 22.638,18.41c0,2.689 -2.337,4.542 -6.831,4.542c-4.195,0 -8.626,-1.554 -12.336,-3.765l-4.309,7.056Z" style="fill:#fff;fill-rule:nonzero;"/>
        <rect x="309.971" y="22.301" width="9.095" height="41.913" style="fill:#fff;fill-rule:nonzero;"/>
        <path d="M325.541,43.019c0,12.877 8.497,21.914 21.796,21.914c6.231,0 11.677,-1.795 15.865,-4.846l0,-19.161l-17.722,0l0,6.161l9.466,0l0,8.39c-1.918,1.139 -4.494,1.798 -7.309,1.798c-8.088,0 -12.881,-5.574 -12.881,-14.256c0,-7.966 5.033,-13.778 12.881,-13.778c4.073,0 7.428,1.438 10.48,3.595l4.726,-6.108c-4.248,-3.111 -9.156,-5.145 -15.446,-5.145c-13.359,0 -21.856,9.335 -21.856,21.436Z" style="fill:#fff;fill-rule:nonzero;"/>
        <path d="M370.995,64.214l8.616,0l0,-28.979l13.059,18.082l13.119,-18.082l0,28.979l8.616,0l0,-41.913l-8.975,0l-12.7,17.903l-12.639,-17.903l-9.096,0l0,41.913Z" style="fill:#fff;fill-rule:nonzero;"/>
        <path d="M419.503,64.214l9.76,0l2.574,-7.845l15.927,0l2.635,7.845l9.7,0l-15.149,-41.913l-10.298,0l-15.149,41.913Zm20.178,-31.852l0.12,0l5.628,17.008l-11.316,0l5.568,-17.008Z" style="fill:#fff;fill-rule:nonzero;"/>
    </g>
</svg>
